<svg width="10" height="10" viewBox="0 0 10 10" fill="none" xmlns="http://www.w3.org/2000/svg">
<circle cx="5" cy="5" r="5" fill="#E5E5E5"/>
<path d="M4.032 7.416L5.228 4.352L5.416 4.624C5.28 4.616 5.13467 4.628 4.98 4.66C4.828 4.68933 4.66267 4.744 4.484 4.824C4.308 4.90133 4.116 5.01067 3.908 5.152L3.708 4.868C4.02 4.60133 4.296 4.4 4.536 4.264C4.776 4.128 4.98667 4.036 5.168 3.988C5.352 3.94 5.51333 3.916 5.652 3.916C5.87867 3.916 6.02267 3.968 6.084 4.072C6.148 4.17333 6.13333 4.34533 6.04 4.588L4.84 7.664L4.644 7.376C4.788 7.384 4.936 7.37733 5.088 7.356C5.24 7.332 5.39733 7.28667 5.56 7.22C5.72533 7.15333 5.89467 7.06267 6.068 6.948L6.248 7.236C5.97867 7.45733 5.73067 7.63067 5.504 7.756C5.27733 7.87867 5.07067 7.964 4.884 8.012C4.69733 8.06267 4.52667 8.088 4.372 8.088C4.156 8.088 4.01867 8.04267 3.96 7.952C3.90133 7.86133 3.92533 7.68267 4.032 7.416ZM5.396 2.748C5.396 2.62267 5.424 2.512 5.48 2.416C5.53867 2.32 5.624 2.244 5.736 2.188C5.85067 2.132 5.99467 2.104 6.168 2.104C6.38133 2.104 6.54133 2.14667 6.648 2.232C6.75467 2.31467 6.808 2.428 6.808 2.572C6.808 2.69733 6.77867 2.80933 6.72 2.908C6.664 3.004 6.57867 3.08 6.464 3.136C6.352 3.18933 6.20933 3.216 6.036 3.216C5.82267 3.216 5.66267 3.17467 5.556 3.092C5.44933 3.00667 5.396 2.892 5.396 2.748Z" fill="#737373"/>
</svg>
